<svg xmlns="http://www.w3.org/2000/svg" width="18" height="16" viewBox="0 0 18 16"><g><g><path d="M17.26 2.91c.481 0 .834.439.717.89l-1.502 5.828a.733.733 0 0 1-.673.54l-11.814.675c.21.478.7.807 1.262.807h8.255c1.236 0 2.242.975 2.242 2.173 0 1.2-1.006 2.174-2.242 2.174-1.548 0-2.637-1.497-2.107-2.913H7.352c.53 1.417-.56 2.913-2.107 2.913-1.864 0-2.91-2.092-1.765-3.511-.635-.488-1.004-1.206-1.065-1.868l-.85-9.187H.74a.728.728 0 0 1-.74-.717c0-.396.332-.717.74-.717H2.24c.383 0 .702.284.736.653l.21 2.26zM6.007 13.824a.752.752 0 0 0-.762-.74.752.752 0 0 0-.763.74c0 .408.342.74.763.74.42 0 .762-.332.762-.74zm8.261 0a.752.752 0 0 0-.763-.74.752.752 0 0 0-.762.74c0 .408.342.74.762.74.421 0 .763-.332.763-.74zm2.045-9.479H3.32l.47 5.074 11.384-.649z"/></g></g></svg>