<svg xmlns="http://www.w3.org/2000/svg" width="17.281" height="20.312" viewBox="0 0 17.281 20.312">
  <defs>
    <style>
      .cls-1 {
        fill: #019ec4;
        fill-rule: evenodd;
      }
    </style>
  </defs>
  <path id="Фигура_14_копия_2" data-name="Фигура 14 копия 2" class="cls-1" d="M349.688,463.076a15.141,15.141,0,0,0-3.039,1.489h0.011a3.482,3.482,0,0,0-1.528,1.814,1.653,1.653,0,0,0,.895,2.159,5.643,5.643,0,0,1,.537.279c2.193,1.22,3.129,3.765,2.143,6.709A11.664,11.664,0,0,1,338.343,483c-6.977,0-7.455-7.674-2.184-13.024a25.2,25.2,0,0,1,13.567-7.287h0.026a0.137,0.137,0,0,1,.132.2,0.318,0.318,0,0,1-.2.188" transform="translate(-332.594 -462.688)"/>
</svg>
