<svg xmlns="http://www.w3.org/2000/svg" width="14" height="17" viewBox="0 0 14 17"><g><g><path d="M1.303 15.822c-1.386-1.387-1.435-3.593-.11-4.919 1.118-1.117 2.855-1.245 4.205-.433L9.09 6.78 7.204 4.893l1.202-1.202 1.886 1.886 1.202-1.203L8.98 1.861 10.182.658 13.324 3.8c.347.347.36.897.028 1.23l-6.697 6.696c.812 1.35.684 3.088-.433 4.205-1.326 1.326-3.532 1.277-4.919-.11zm1.203-1.202c.693.693 1.796.718 2.459.055.663-.663.638-1.766-.055-2.459-.694-.694-1.796-.718-2.46-.056-.662.664-.638 1.766.056 2.46z"/></g></g></svg>