<svg xmlns="http://www.w3.org/2000/svg" viewBox="0 0 45.55 142.75"><defs><style>.cls-1{fill:#fff;}.cls-2{fill:#b3b3b3;}</style></defs><g id="Слой_2" data-name="Слой 2"><g id="Слой_1-2" data-name="Слой 1"><polygon points="45.55 13.52 23.06 0 0 13.52 0 13.52 0 129.02 23.23 142.75 45.55 129.02 45.55 13.52"/><rect class="cls-1" x="9.01" y="106.82" width="27.54" height="0.53"/><rect class="cls-1" x="9.01" y="122.48" width="27.54" height="0.53"/><path class="cls-1" d="M9.55,114.65h0a1.3,1.3,0,0,1,1.08-.53,1.55,1.55,0,0,1,1.49,1.65,1.51,1.51,0,0,1-1.5,1.64,1.3,1.3,0,0,1-1.07-.52h0v2.19H9V114.2h.54Zm0,1.08a1.08,1.08,0,0,0,1,1.19,1.07,1.07,0,0,0,1.05-1.18,1,1,0,0,0-1.05-1.13A1.06,1.06,0,0,0,9.52,115.73Z"/><polygon class="cls-1" points="16.69 114.35 16.69 112.32 17.25 112.32 17.25 117.33 16.69 117.33 16.69 114.87 14.13 114.87 14.13 117.33 13.57 117.33 13.57 112.32 14.13 112.32 14.13 114.35 16.69 114.35"/><polygon class="cls-1" points="21.5 112.83 21.5 112.32 25.19 112.32 21.83 117.41 21.39 117.15 24.23 112.83 21.5 112.83"/><path class="cls-1" d="M27.31,117a.37.37,0,0,1-.37.38.38.38,0,0,1-.37-.38.37.37,0,0,1,.37-.36.36.36,0,0,1,.37.36"/><path class="cls-1" d="M31.46,112.54,30.3,114.1h0a1.23,1.23,0,0,1,.44-.07,1.63,1.63,0,0,1,1.62,1.65,1.73,1.73,0,0,1-3.46,0,2.07,2.07,0,0,1,.46-1.2L31,112.23Zm.36,3.17a1.17,1.17,0,0,0-2.34,0,1.17,1.17,0,1,0,2.34,0Z"/><path class="cls-1" d="M37.17,116v.52h-.62v.81H36v-.81H33.43L36.54,112h0v4ZM36,113.73h0L34.41,116H36Z"/><path class="cls-1" d="M23.91,30a13.4,13.4,0,0,0-1.18-2.24,10,10,0,0,0-1.68-2,8.21,8.21,0,0,0-2.11-1.39,6.11,6.11,0,0,0-2.54-.53,6.54,6.54,0,0,0-3.29.74,2.8,2.8,0,0,0-1.29,2.65,3.28,3.28,0,0,0,.58,1.95A5.58,5.58,0,0,0,14,30.61a13.77,13.77,0,0,0,2.2,1.17l2.52,1.07c.86.37,1.7.76,2.53,1.18a10.48,10.48,0,0,1,2.2,1.52,7.16,7.16,0,0,1,1.55,2,6.18,6.18,0,0,1,.58,2.79,6.58,6.58,0,0,1-.63,3,6,6,0,0,1-1.71,2.06,7.31,7.31,0,0,1-2.51,1.2,11.89,11.89,0,0,1-3,.38,10.82,10.82,0,0,1-1.84-.16q-.95-.17-1.83-.36l-1.6-.37A5.52,5.52,0,0,0,11.22,46a2.3,2.3,0,0,0-.74.12l-.74.26C9.53,45,9.28,43.69,9,42.42s-.57-2.58-.88-3.91l.46-.25a24,24,0,0,0,1.53,2.56,15.47,15.47,0,0,0,2,2.44,11,11,0,0,0,2.48,1.84,6.12,6.12,0,0,0,3,.74,8.56,8.56,0,0,0,2-.23,5,5,0,0,0,1.67-.72,3.63,3.63,0,0,0,1.15-1.28,4.15,4.15,0,0,0,.42-2,3.92,3.92,0,0,0-1-2.76A10,10,0,0,0,19.22,37a30.44,30.44,0,0,0-3.29-1.53,24,24,0,0,1-3.3-1.58,9.73,9.73,0,0,1-2.54-2.08,4.47,4.47,0,0,1-1-3,5.78,5.78,0,0,1,2-4.42,6.25,6.25,0,0,1,2.08-1.21,7.4,7.4,0,0,1,2.52-.42,13.81,13.81,0,0,1,2.34.17c.69.12,1.37.25,2,.39l2,.41a11.66,11.66,0,0,0,2.11.19c0,1.06,0,2.08.05,3.08s.11,2,.23,3Z"/><path class="cls-1" d="M30.93,38.36c0-.53,0-2.74-.05-3.15a2.4,2.4,0,0,0-.3-1,1.86,1.86,0,0,0-.74-.67,4,4,0,0,0-1.36-.37v-.46l5.23-.33V43.56a5,5,0,0,0,.14,1.31,1.37,1.37,0,0,0,.44.73,1.87,1.87,0,0,0,.81.34,9,9,0,0,0,1.23.14v.39L34,46.37c-.79,0-1.77,0-2.54,0-.51,0-1,0-1.49,0l-1.49.1v-.39a7.57,7.57,0,0,0,1.12-.14,1.67,1.67,0,0,0,.76-.34,1.36,1.36,0,0,0,.43-.73,5,5,0,0,0,.14-1.31Z"/><path class="cls-2" d="M35.12,22.6a5.74,5.74,0,0,0-1.14.56h0a1.27,1.27,0,0,0-.57.68.61.61,0,0,0,.33.81l.2.11a2,2,0,0,1,.8,2.52,4.36,4.36,0,0,1-3.87,2.81c-2.61,0-2.79-2.89-.82-4.9a9.41,9.41,0,0,1,5.07-2.73h0s.07,0,0,.07a.12.12,0,0,1-.07.07"/><path class="cls-2" d="M11.26,63.76a2.62,2.62,0,0,0,.38.07l.49.07a4.87,4.87,0,0,0,.55.06l.52,0a9.65,9.65,0,0,0,1.88-.17,5.68,5.68,0,0,0,1.53-.56,6.31,6.31,0,0,0,1.3-1,11.51,11.51,0,0,0,1.25-1.43l.19.16-1.59,3.52c-.2,0-.41,0-.62-.06H8.93c-.34,0-.68,0-1,.06v-.21a3.41,3.41,0,0,0,1-.2,1,1,0,0,0,.53-.43,1.85,1.85,0,0,0,.22-.78c0-.32,0-.73,0-1.22V55.83c0-.49,0-.9,0-1.22a1.85,1.85,0,0,0-.22-.78,1.08,1.08,0,0,0-.54-.44,4.23,4.23,0,0,0-1-.19V53L9,53l1.1,0h2.65c.82,0,1.64,0,2.46,0l2.48,0c0,.13,0,.26,0,.39s0,.25,0,.36v.71q0,.38,0,.78c0,.26.05.55.07.86l-.22.07a4.48,4.48,0,0,0-.61-1.37,2.89,2.89,0,0,0-.87-.84,3.45,3.45,0,0,0-1.1-.4,7.31,7.31,0,0,0-1.26-.1c-.82,0-1.64,0-2.45.1v4.38l.67,0h.68a3.28,3.28,0,0,0,1.91-.49,2.3,2.3,0,0,0,.87-1.76h.21c0,.42,0,.84,0,1.26s0,.84,0,1.25,0,.84,0,1.26,0,.84,0,1.26h-.21a5.15,5.15,0,0,0-.38-1.2,2.07,2.07,0,0,0-.57-.71,2.1,2.1,0,0,0-.85-.33,7,7,0,0,0-1.21-.09H11.26Z"/><path class="cls-2" d="M23,53l1.16,0c.37,0,.8,0,1.29,0,.26,0,.51,0,.75,0L27,53q.23.32.75,1l1.2,1.46,1.45,1.75c.51.62,1,1.22,1.48,1.81l1.33,1.65c.4.51.72.92,1,1.25h0c0-.35,0-.7,0-1V57.76c0-.75,0-1.4-.07-2a4.91,4.91,0,0,0-.32-1.39,2,2,0,0,0-.67-.86A2.25,2.25,0,0,0,32,53.2V53l1.24,0c.41,0,.83,0,1.23,0s.76,0,1.14,0l1.14,0v.21a1.84,1.84,0,0,0-1.92,2.17v9.29h-.65c-.64-1-1.32-2-2-2.93S30.7,59.89,30,59s-1.39-1.64-2-2.37-1.25-1.38-1.78-1.95c0,.3,0,.6,0,.89s0,.59,0,.89v3.07q0,1.56.06,2.46a3.73,3.73,0,0,0,.3,1.38,1.18,1.18,0,0,0,.7.65,5.93,5.93,0,0,0,1.28.26v.21l-1.73-.06H24l-1,.06v-.21l1-.17a2,2,0,0,0,.74-.26,1.21,1.21,0,0,0,.44-.53,2.82,2.82,0,0,0,.16-1l.21-8a4.31,4.31,0,0,0-1.22-.72A10.93,10.93,0,0,0,23,53.2Z"/><path class="cls-2" d="M11.26,81.8l.38.07.49.07.55.06.52,0a8.89,8.89,0,0,0,1.88-.18,5.08,5.08,0,0,0,1.53-.56,5.92,5.92,0,0,0,1.3-1,12.44,12.44,0,0,0,1.25-1.44l.19.16-1.59,3.52-.62,0-.61,0H9.94l-1,0-1,0v-.21a3.45,3.45,0,0,0,1-.19,1,1,0,0,0,.53-.44,1.85,1.85,0,0,0,.22-.78c0-.32,0-.72,0-1.21V73.87c0-.5,0-.9,0-1.22a1.85,1.85,0,0,0-.22-.78,1,1,0,0,0-.54-.44,3.78,3.78,0,0,0-1-.19V71l1.13,0,1.1,0h2.65l2.46,0,2.48,0c0,.13,0,.25,0,.38s0,.25,0,.37v.7q0,.39,0,.78c0,.26.05.55.07.87l-.22.07a4.66,4.66,0,0,0-.61-1.38,3,3,0,0,0-.87-.83,3.23,3.23,0,0,0-1.1-.4,7.29,7.29,0,0,0-1.26-.11c-.82,0-1.64,0-2.45.11V76l.67,0,.68,0a3.35,3.35,0,0,0,1.91-.48,2.31,2.31,0,0,0,.87-1.76h.21c0,.42,0,.84,0,1.26s0,.84,0,1.24,0,.85,0,1.27,0,.84,0,1.26h-.21a5.15,5.15,0,0,0-.38-1.2,1.8,1.8,0,0,0-1.42-1,8.34,8.34,0,0,0-1.21-.08H11.26Z"/><path class="cls-2" d="M37.25,82.48H33.69A31.43,31.43,0,0,1,31.38,80a19.06,19.06,0,0,1-1.89-2.68c-.13,0-.3,0-.51,0l-.63-.08-.63-.1L27.21,77v2.74c0,.49,0,.89.05,1.21a1.71,1.71,0,0,0,.26.78,1.2,1.2,0,0,0,.62.44,4.79,4.79,0,0,0,1.15.19v.21l-1.5,0-1.51,0-1.44,0-1.43,0v-.21a4.33,4.33,0,0,0,1.11-.19,1.17,1.17,0,0,0,.61-.44,1.71,1.71,0,0,0,.25-.78,10.3,10.3,0,0,0,.05-1.21V73.87a10.38,10.38,0,0,0-.05-1.22,1.71,1.71,0,0,0-.25-.78,1.17,1.17,0,0,0-.61-.44,4.33,4.33,0,0,0-1.11-.19V71l1.27,0,1.27,0,.69,0,.88-.06.94-.06.85,0a8.08,8.08,0,0,1,1.74.2,5.18,5.18,0,0,1,1.61.61,3.87,3.87,0,0,1,1.17,1.07,2.62,2.62,0,0,1,.45,1.54A2.21,2.21,0,0,1,34,75.42a2.63,2.63,0,0,1-.66.83,3.9,3.9,0,0,1-1,.58,5.89,5.89,0,0,1-1.18.33l.66.94c.25.35.53.71.84,1.07s.64.72,1,1.08a8.3,8.3,0,0,0,1.11,1,6.4,6.4,0,0,0,1.19.72,3.59,3.59,0,0,0,1.25.34Zm-10-6.09a5.77,5.77,0,0,0,1.84.3,4,4,0,0,0,2.4-.64,2.36,2.36,0,0,0,.85-2A2.14,2.14,0,0,0,32.05,73a2.46,2.46,0,0,0-.68-.8,3.09,3.09,0,0,0-1-.53,3.88,3.88,0,0,0-1.18-.18c-.33,0-.65,0-1,0a6,6,0,0,0-.93.16l-.06,1.7c0,.57,0,1.19,0,1.86Z"/><path class="cls-2" d="M18.51,92.7c-.22-.45-.46-.88-.71-1.3a5.41,5.41,0,0,0-.87-1.12,3.77,3.77,0,0,0-1.13-.79,3.45,3.45,0,0,0-1.49-.3,3.33,3.33,0,0,0-1.78.49A4.63,4.63,0,0,0,11.2,91a6,6,0,0,0-.84,1.77,6.65,6.65,0,0,0-.29,2,7.09,7.09,0,0,0,.29,2.09,5.26,5.26,0,0,0,.84,1.73,4.14,4.14,0,0,0,1.33,1.17,3.48,3.48,0,0,0,1.78.44A7.42,7.42,0,0,0,16,100a3.86,3.86,0,0,0,1.51-.67V97c0-.79-.6-1.21-1.81-1.24v-.21l1.23,0q.56,0,1.26,0l1.3,0,1.29-.05v.21a3.6,3.6,0,0,0-.68.09,1.35,1.35,0,0,0-.53.22,1.06,1.06,0,0,0-.35.43,1.54,1.54,0,0,0-.14.69v2.46c-.8.26-1.6.51-2.39.74a8.08,8.08,0,0,1-2.28.34,7,7,0,0,1-2.3-.39,6,6,0,0,1-2-1.17A5.61,5.61,0,0,1,8.64,97.3a5.91,5.91,0,0,1-.54-2.59,5.4,5.4,0,0,1,.54-2.39,6.15,6.15,0,0,1,1.42-1.92,6.87,6.87,0,0,1,2-1.27,6,6,0,0,1,2.3-.46,12.43,12.43,0,0,1,1.29.06,9,9,0,0,1,1,.16c.32.06.61.13.86.2l.74.19c0,.19,0,.43,0,.74s.07.63.12,1,.09.65.14,1,.08.56.12.75Z"/><path class="cls-2" d="M24,89l1.43,0,1.44,0,1.38,0,1.37,0v.21c-.14,0-.29.06-.46.1a2.53,2.53,0,0,0-.48.19,1.38,1.38,0,0,0-.36.32.82.82,0,0,0-.14.47,1.15,1.15,0,0,0,.19.51c.12.21.3.47.53.79L31.4,94.9l2.07-3.24a2.63,2.63,0,0,0,.45-1.35,1,1,0,0,0-.42-.81,1.68,1.68,0,0,0-.94-.34V89l1.23,0L35,89l1.12,0,1.11,0v.21a3.16,3.16,0,0,0-1.12.44,5.83,5.83,0,0,0-.89.74,6.5,6.5,0,0,0-.7.87c-.2.3-.39.57-.57.82l-2.39,3.5v2.58a4.19,4.19,0,0,0,.1,1,1.29,1.29,0,0,0,.34.62,1.44,1.44,0,0,0,.64.33,5.76,5.76,0,0,0,1,.16v.21l-1.56,0-1.56,0-1.3,0-1.29,0v-.21a5.43,5.43,0,0,0,1-.16,1.46,1.46,0,0,0,.63-.33,1.2,1.2,0,0,0,.33-.62,4.19,4.19,0,0,0,.1-1V95.36l-3.17-4.07-.51-.64a4.82,4.82,0,0,0-.59-.61,3.75,3.75,0,0,0-.74-.52,3.44,3.44,0,0,0-1-.36Z"/></g></g></svg>