<svg xmlns="http://www.w3.org/2000/svg" width="16" height="16" viewBox="0 0 16 16"><g><g><path fill="#019ec4" d="M15.998 12.89a2.365 2.365 0 0 0-.726-1.626c-.873-.843-1.604-1.328-2.301-1.53-.961-.278-1.851-.025-2.645.75a.029.029 0 0 0-.004.005l-.845.838c-.528-.297-1.555-.951-2.664-2.06l-.083-.083C5.62 8.074 4.967 7.047 4.67 6.52l.839-.845.003-.003c.776-.795 1.028-1.685.75-2.645-.2-.698-.687-1.43-1.528-2.302a2.366 2.366 0 0 0-1.627-.726 2.362 2.362 0 0 0-1.674.607l-.018.016a1.16 1.16 0 0 0-.024.023C.473 1.562-.008 2.847 0 4.36c.013 2.57 1.425 5.507 3.777 7.86.444.443.948.883 1.499 1.304a.624.624 0 1 0 .76-.991 13.84 13.84 0 0 1-1.375-1.197C2.536 9.212 1.261 6.6 1.25 4.354c-.006-1.166.344-2.138 1.013-2.814l.005-.004a1.124 1.124 0 0 1 1.566.057c1.618 1.678 1.5 2.47.786 3.203L3.46 5.963a.626.626 0 0 0-.127.695c.03.066.74 1.638 2.513 3.41l.082.082c1.772 1.772 3.344 2.484 3.41 2.513a.624.624 0 0 0 .695-.127l1.167-1.16c.733-.714 1.526-.83 3.204.787.44.424.464 1.111.056 1.566l-.004.005c-.67.663-1.632 1.014-2.785 1.014h-.028c-.921-.006-1.988-.258-3.084-.73a.625.625 0 0 0-.495 1.147c1.267.546 2.47.827 3.573.832h.035c1.497 0 2.769-.48 3.68-1.39l.022-.025.016-.018c.414-.46.63-1.055.607-1.674z"/></g></g></svg>