<svg xmlns="http://www.w3.org/2000/svg" width="18" height="10" viewBox="0 0 18 10"><g><g><path d="M17.16 8.694c-.046-.075-.334-.671-1.721-1.898-1.452-1.284-1.257-1.075.492-3.295 1.065-1.352 1.49-2.179 1.357-2.531-.127-.337-.91-.249-.91-.249l-2.604.015s-.193-.025-.337.057c-.14.08-.23.267-.23.267s-.412 1.046-.963 1.936c-1.16 1.877-1.624 1.976-1.814 1.86-.44-.272-.33-1.093-.33-1.675 0-1.82.289-2.578-.565-2.775C9.251.341 9.043.298 8.32.291c-.93-.01-1.717.003-2.162.21-.297.14-.526.447-.386.465.172.022.562.1.769.369.268.346.258 1.124.258 1.124s.154 2.141-.359 2.408c-.352.183-.834-.19-1.868-1.894-.53-.872-.93-1.838-.93-1.838S3.562.956 3.425.86C3.259.742 3.025.706 3.025.706L.549.72S.177.73.04.885c-.122.137-.01.42-.01.42s1.939 4.322 4.133 6.5c2.014 1.999 4.3 1.867 4.3 1.867h1.035s.314-.032.473-.197c.147-.15.142-.434.142-.434s-.02-1.324.625-1.519c.636-.192 1.452 1.28 2.318 1.847.654.428 1.151.334 1.151.334l2.315-.03s1.211-.072.637-.979z"/></g></g></svg>