<svg xmlns="http://www.w3.org/2000/svg" width="16" height="16" viewBox="0 0 16 16"><g><g><path fill="#019ec4" d="M13.654 13.653a7.997 7.997 0 0 1-11.312 0 7.996 7.996 0 0 1 0-11.314 7.995 7.995 0 0 1 11.312 0 7.996 7.996 0 0 1 0 11.314zm-.334-1.141a6.916 6.916 0 0 0 1.64-4.006h-2.352c-.04 1.1-.204 2.159-.483 3.121.421.255.821.55 1.195.885zm-10.644 0c.374-.335.774-.63 1.195-.885a12.94 12.94 0 0 1-.482-3.121H1.037a6.917 6.917 0 0 0 1.64 4.006zm-1.64-5.026H3.39c.038-1.1.203-2.159.482-3.122a7.997 7.997 0 0 1-1.195-.884 6.919 6.919 0 0 0-1.64 4.006zM7.489 1.09c-1.147.33-1.944 1.665-2.376 2.778a6.919 6.919 0 0 0 2.376.602zM4.795 4.843c-.22.818-.351 1.713-.387 2.643h3.08V5.492a7.945 7.945 0 0 1-2.693-.649zm-.387 3.663c.036.93.168 1.825.387 2.643a7.927 7.927 0 0 1 2.693-.648V8.506zm.704 3.617c.432 1.114 1.23 2.448 2.376 2.779v-3.38a6.924 6.924 0 0 0-2.376.601zm3.396 2.779c1.147-.33 1.944-1.666 2.376-2.779a6.925 6.925 0 0 0-2.376-.601zm0-4.401c.94.058 1.849.279 2.693.648.22-.818.351-1.712.387-2.643h-3.08zm3.08-3.015a12.014 12.014 0 0 0-.387-2.643c-.844.37-1.753.59-2.693.649v1.994zm-.704-3.618C10.452 2.755 9.655 1.42 8.508 1.09v3.38a6.92 6.92 0 0 0 2.376-.602zm.9-.493c.287-.185.56-.393.82-.623a6.974 6.974 0 0 0-1.807-1.154c.409.536.733 1.148.987 1.777zm-7.572 0c.254-.63.579-1.24.987-1.777a6.974 6.974 0 0 0-1.807 1.154c.26.23.534.438.82.623zm-.82 9.865c.545.48 1.154.868 1.807 1.154a7.68 7.68 0 0 1-.987-1.777 6.96 6.96 0 0 0-.82.623zm8.392-.623a7.68 7.68 0 0 1-.987 1.776 6.968 6.968 0 0 0 1.807-1.153 6.97 6.97 0 0 0-.82-.623zm3.175-5.13A6.919 6.919 0 0 0 13.32 3.48c-.374.334-.773.63-1.195.884.279.963.444 2.021.483 3.122z"/></g></g></svg>